<svg xmlns="http://www.w3.org/2000/svg" width="32" height="32" viewBox="0 0 32 32" fill="none">
  <!-- Rounded board background -->
  <rect x="2" y="2" width="28" height="28" rx="6" fill="#4F46E5"/>
  <!-- Three kanban columns -->
  <rect x="6" y="7" width="5.5" height="18" rx="1.5" fill="#818CF8" opacity="0.6"/>
  <rect x="13.25" y="7" width="5.5" height="18" rx="1.5" fill="#818CF8" opacity="0.6"/>
  <rect x="20.5" y="7" width="5.5" height="18" rx="1.5" fill="#818CF8" opacity="0.6"/>
  <!-- Cards: todo column -->
  <rect x="7" y="9" width="3.5" height="3" rx="0.75" fill="white"/>
  <rect x="7" y="13.5" width="3.5" height="3" rx="0.75" fill="white"/>
  <!-- Card: doing column (yellow) -->
  <rect x="14.25" y="9" width="3.5" height="3" rx="0.75" fill="#FCD34D"/>
  <!-- Card: done column (green) -->
  <rect x="21.5" y="9" width="3.5" height="3" rx="0.75" fill="#34D399"/>
  <!-- Vibe wave accent -->
  <path d="M6 22 C9 19, 11 25, 14 22 C17 19, 19 25, 22 22 C25 19, 27 24, 26 22" stroke="white" stroke-width="1.5" stroke-linecap="round" fill="none" opacity="0.5"/>
</svg>
